Coordinates
version=1
nRows=10
nColumns=22
inDegrees=yes

Units are S.I. units (second, meters, Newtons, ...)
If the header above contains a line with 'inDegrees', this indicates whether rotational values are in degrees (yes) or radians (no).

endheader
time	pelvis_tilt	pelvis_list	pelvis_rotation	pelvis_tx	pelvis_ty	pelvis_tz	hip_flexion_r	hip_adduction_r	hip_rotation_r	knee_angle_r	ankle_angle_r	subtalar_angle_r	hip_flexion_l	hip_adduction_l	hip_rotation_l	knee_angle_l	ankle_angle_l	subtalar_angle_l	lumbar_extension	lumbar_bending	lumbar_rotation
      4.02000000	     -2.63792995	     -7.07780679	     60.62081503	      0.55809750	      0.95658780	     -0.26551546	     36.60375439	      3.46796153	     -0.56980678	    -29.20305925	      4.84721309	     -2.59685511	      7.95238609	      5.90550208	      6.26526225	    -39.50089664	     21.15322667	      1.39975532	      0.24112285	      2.55407502	      3.48637419
      4.03000000	     -2.42911719	     -7.09782720	     60.58944891	      0.56306458	      0.95729020	     -0.27177001	     36.27654317	      3.76491312	     -0.67147438	    -29.66968533	      5.44129964	     -2.94190527	      7.95383559	      5.53673634	      5.85661131	    -40.40012323	     20.10992454	      2.27774579	      0.33828289	      2.84200758	      3.60142087
      4.04000000	     -2.25881935	     -7.13592882	     60.59292359	      0.56792312	      0.95801172	     -0.27793962	     35.93546981	      4.02390573	     -0.78694940	    -30.04498351	      6.04120152	     -3.33695526	      8.03057479	      5.17736696	      5.44391124	    -41.31940906	     18.95571812	      3.14616621	      0.46935295	      3.09228544	      3.66108289
      4.05000000	     -2.12499134	     -7.19563729	     60.63999784	      0.57264382	      0.95873697	     -0.28399652	     35.59411163	      4.24707010	     -0.90106597	    -30.34345659	      6.61674122	     -3.76740492	      8.19097830	      4.82621153	      5.04669589	    -42.26283885	     17.71316410	      3.95636854	      0.63623878	      3.30639608	      3.65963079
      4.06000000	     -2.03136188	     -7.26780185	     60.71992372	      0.57720736	      0.95944861	     -0.28993211	     35.26084051	      4.42517914	     -1.02298323	    -30.58649509	      7.18644665	     -4.22783257	      8.43241638	      4.49675411	      4.67138428	    -43.24060013	     16.40174210	      4.71728418	      0.82684401	      3.47963960	      3.62098415
      4.07000000	     -1.96174173	     -7.36477751	     60.85211620	      0.58157123	      0.96014335	     -0.29572167	     34.94068579	      4.57289663	     -1.13782664	    -30.76914889	      7.68800615	     -4.65466643	      8.77481308	      4.16820209	      4.32846345	    -44.27768110	     15.02818802	      5.40497869	      1.04192148	      3.63658850	      3.50013179
      4.08000000	     -1.91906807	     -7.47184509	     61.01088477	      0.58574936	      0.96079839	     -0.30136066	     34.64509661	      4.68901016	     -1.24215926	    -30.93497438	      8.17894930	     -5.09230394	      9.19944876	      3.85548252	      4.01407206	    -45.36991640	     13.64447710	      6.13082466	      1.26604471	      3.76723433	      3.36761749
      4.09000000	     -1.88668902	     -7.59315319	     61.20722470	      0.58972646	      0.96142336	     -0.30683209	     34.36444994	      4.78674482	     -1.33528495	    -31.06899853	      8.62330562	     -5.48982889	      9.71140389	      3.54226294	      3.73555240	    -46.53373791	     12.26906377	      6.87789940	      1.49098303	      3.89082695	      3.19252926
      4.10000000	     -1.86536702	     -7.72191738	     61.41950113	      0.59353309	      0.96199571	     -0.31211334	     34.10957222	      4.87164468	     -1.41390009	    -31.20113599	      9.06867939	     -5.88216220	     10.30306931	      3.23040513	      3.47458141	    -47.76947687	     10.96219648	      7.75438069	      1.70767919	      3.99824927	      3.03632168
      4.11000000	     -1.84691188	     -7.85475529	     61.65781421	      0.59715601	      0.96253815	     -0.31720656	     33.86168826	      4.94650442	     -1.47499200	    -31.30721906	      9.47008704	     -6.23261688	     10.96925050	      2.91242426	      3.22758611	    -49.07484524	      9.74690315	      8.74656196	      1.90748796	      4.10082694	      2.84640729
